<svg xmlns="http://www.w3.org/2000/svg" xmlns:xlink="http://www.w3.org/1999/xlink" width="301.117" height="106.045" viewBox="0 0 4742 1670">
  <defs>
    <style>
      .cls-1, .cls-3 {
        fill: #6fc3c0;
      }

      .cls-1, .cls-2, .cls-3, .cls-4 {
        fill-rule: evenodd;
      }

      .cls-1 {
        filter: url(#filter);
      }

      .cls-2, .cls-4 {
        fill: #f0f0f3;
      }

      .cls-2 {
        filter: url(#filter-2);
      }

      .cls-3 {
        filter: url(#filter-3);
      }

      .cls-4 {
        filter: url(#filter-4);
      }
    </style>
    <filter id="filter" x="2589" y="12" width="2108.81" height="1042" filterUnits="userSpaceOnUse">
      <feOffset result="offset" dx="-30" in="SourceAlpha"/>
      <feGaussianBlur result="blur" stdDeviation="1.732"/>
      <feFlood result="flood"/>
      <feComposite result="composite" operator="in" in2="blur"/>
      <feBlend result="blend" in="SourceGraphic"/>
    </filter>
    <filter id="filter-2" x="12" y="25" width="2482.53" height="1018" filterUnits="userSpaceOnUse">
      <feOffset result="offset" dx="-30" in="SourceAlpha"/>
      <feGaussianBlur result="blur" stdDeviation="1.732"/>
      <feFlood result="flood"/>
      <feComposite result="composite" operator="in" in2="blur"/>
      <feBlend result="blend" in="SourceGraphic"/>
    </filter>
    <filter id="filter-3" x="2270" y="1204" width="1816.38" height="435" filterUnits="userSpaceOnUse">
      <feOffset result="offset" dx="-20" in="SourceAlpha"/>
      <feGaussianBlur result="blur" stdDeviation="1.732"/>
      <feFlood result="flood"/>
      <feComposite result="composite" operator="in" in2="blur"/>
      <feBlend result="blend" in="SourceGraphic"/>
    </filter>
    <filter id="filter-4" x="21" y="1204" width="4677.38" height="436" filterUnits="userSpaceOnUse">
      <feOffset result="offset" dx="-20" in="SourceAlpha"/>
      <feGaussianBlur result="blur" stdDeviation="1.732"/>
      <feFlood result="flood"/>
      <feComposite result="composite" operator="in" in2="blur"/>
      <feBlend result="blend" in="SourceGraphic"/>
    </filter>
  </defs>
  <path id="Color_Fill_2" data-name="Color Fill 2" class="cls-1" d="M4684.74,343.98H4426.66c-1.3-42.94-25.51-76.7-56.44-90.392-13.13-5.81-27.53-9.224-43.77-12.27-11.03-2.069-27.18-3.534-38.85-1.636l-29.04,1.636c-33.91,6.327-60.12,15.995-75.26,40.9-8.74,14.375-13.96,42.4-5.73,62.17,10.61,25.453,35.67,38.143,61.35,48.672,56.13,23.009,126.91,28.354,188.15,46.628,120.94,36.095,210.05,84.437,253.99,197.962,7.64,19.748,10.92,42.04,15.13,65.851q0.825,14.314,1.64,28.631v28.631c-2.87,17.695-2.54,35.032-6.55,51.127-7.5,30.187-16.59,57.421-30.67,80.984-43.71,73.129-115.91,117.745-209,141.515-25.83,6.6-52.14,8.26-80.99,13.09-16.95,2.84-35.44.35-53.98,3.27H4274.1q-24.75-1.215-49.49-2.45c-35.54-5.95-69.32-8.21-100.62-17.59-155.98-46.708-256.88-145-256.85-347.249h256.04c-0.32,21.027,5.19,40.468,11.45,55.625,21.2,51.357,60.53,73.048,121.88,84.666,11.45,2.168,28.45,3.63,40.49,1.636l29.45-1.636c36.17-6.635,64.29-16.711,82.21-41.31,10.17-13.961,18.46-37.281,11.45-60.125-8.44-27.528-32.53-41.782-57.67-52.763-57.17-24.971-128.74-33.5-194.68-50.308-112.63-28.715-212.84-74.519-255.22-173.422-8.48-19.8-13.44-41.671-18-66.26l-2.04-32.721q-0.21-11.041-.41-22.087c2.88-17.579,1.78-34.769,5.32-50.717,6.6-29.8,15.11-57.43,28.63-80.576,46.08-78.912,116.99-129.324,212.27-159.106,21.73-6.793,43.98-9.659,68.3-14.316,15.18-2.906,32.4-2.609,48.67-5.317l18.82-.409h38.45l44.99,2.454c30.49,5.256,59.48,8,86.3,16.361C4576.9,74.609,4684.91,170.13,4684.74,343.98ZM2621.72,27.813h335.79q114.93,286.281,229.86,572.618h11.46q6.33-15.95,12.68-31.9,20.64-51.325,41.31-102.662,88.125-219,176.28-438.053h335.79V1039.3H3501.08V454.822h-7.36q-6.345,16.768-12.68,33.539-20.04,52.348-40.08,104.708-84.045,219.208-168.1,438.461-79.755-.21-159.52-0.41-110.205-290.163-220.45-580.388h-7.36V1039.3H2621.72V27.813Z"/>
  <path id="Color_Fill_1" data-name="Color Fill 1" class="cls-2" d="M44.176,27.813H469.95c20.328,0,40.941-1.474,59.714,1.636,20.6,3.412,41.2,3.489,60.533,7.771,49.954,11.065,91.842,25.8,128.836,49.082,45.8,28.827,77.274,71.607,94.48,129.248,3.881,13,4.51,27.254,6.953,41.719q0.205,7.566.409,15.134c2.977,18.721-.575,42.066-4.5,57.67-4.969,19.763-10.8,38.976-20.041,54.808-26.792,45.883-63.166,79.777-114.112,101.435-16.5,7.013-34.5,9.805-52.762,15.952v9.407c31.931-.4,61.283,7.6,84.664,17.179,70.513,28.879,119.4,82.063,139.062,161.969,5.818,23.65,10.476,59.9,5.726,89.574-2.715,16.965-4.129,33.19-8.589,48.263a275.968,275.968,0,0,1-40.083,83.03L785.7,940.73c-8.759,10.845-21.8,19.914-33.129,28.222-35.457,26-76.2,45.688-125.565,58.078-17.6,4.42-36.251,6.28-55.215,9.41-22.993,3.79-48.31,2.86-74.03,2.86H44.176V27.813Zm910.035,0H1224.15V1039.3H954.211V27.813Zm397.139,0h335.8q114.915,286.281,229.86,572.618h11.45q6.345-15.95,12.68-31.9,20.445-50.918,40.9-101.844,88.335-219.414,176.69-438.871h335.79V1039.3H2230.71V454.822h-7.77q-110.205,288.326-220.45,576.708h-159.1q-110.43-290.368-220.87-580.8h-7.36V1039.3H1351.35V27.813ZM313.71,243.363V436.417c87.993,0.536,173.2,9.768,211.864-40.492,9.333-12.133,22.08-35.905,18.406-60.125-4.394-28.962-8.441-41.581-23.314-59.307C484.746,233.681,392.081,243.3,313.71,243.363Zm0,363.612V819.662c79.454,0.261,178.885,8.926,225.362-24.132,21.256-15.119,30.425-36.144,35.583-67.9,4.586-28.231-5.885-54.155-15.542-69.532-29.46-46.909-76.472-51.128-152.15-51.127H313.71Z"/>
  <path id="Color_Fill_4" data-name="Color Fill 4" class="cls-3" d="M3103.94,1206.18c40.98-1,43.9,48.75,10.22,56.03-21.16,4.58-41.09-14.32-34.35-35.99C3083.68,1213.75,3092.22,1211.11,3103.94,1206.18Zm982.43,90.39v45.4c-36.07-5.61-63.73.76-75.67,27.81-6.41,14.52-4.91,37.9-4.91,58.9v111.66h-46.22V1299.43h45v38.04h2.04c5.86-22.49,25.45-36.83,49.49-41.31C4065.64,1294.39,4077.13,1296.29,4086.37,1296.57ZM2508.43,1434h-168.1c2.29,30.26,11.34,51.25,31.49,63.4,34.66,20.89,77.47,5.06,89.57-25.36l44.17,7.77c-13.37,39.72-38.08,56.98-83.84,64.62-10.58,1.77-26.13,1.65-36.4-.41-9.74-1.94-19.15-4.2-27.41-7.77-50.66-21.88-82.3-99.68-54.8-169.74,16.43-41.86,62.09-85.14,127.2-67.48,10.64,2.88,21,6.58,29.45,11.86C2496.61,1333.92,2508.59,1373.28,2508.43,1434Zm248.26,106.34h-46.62V1420.91c0-22.69,1.41-46.33-6.96-60.53-8.18-13.89-19.56-20.23-38.85-23.32-18.3-2.92-32.03,6.69-40.9,13.91-17.97,14.63-18,40.96-18,74.03v115.34h-46.22V1299.43h44.59v38.86h2.45c7.67-17.12,20.28-30.27,38.04-37.22,39.06-15.28,81.38,2.57,97.34,26.59,17.25,25.94,15.13,69.04,15.13,112.88v99.8Zm221.27-202.05v-38.86h45.4v200.01c0.01,52.19,2.3,88.7-26.99,112.07-39.78,31.75-115.92,32.23-156.24.82-6.01-4.68-24.53-23.13-23.31-31.9q19.83-7.98,39.67-15.96c14.05,34.55,74.03,44.08,105.93,18.82,18.75-14.85,14.96-53.06,14.73-86.71h-2.46c-17.88,37-72.44,54.69-116.56,28.63-23.33-13.78-39.1-35.92-46.63-65.44q-2.04-14.73-4.09-29.45c-2.52-15.43.07-34.49,2.86-47.04,10.47-47.08,34.9-77.77,84.26-86.3,11.74-2.03,27.41-.97,37.22,2.05,15.01,4.6,26.95,14.65,35.17,26.17q4.29,6.54,8.59,13.09h2.45Zm411.87,202.05h-46.22V1420.91c0.01-25.21.92-48.92-8.99-63.8-7.96-11.95-19.41-17.26-36.81-20.05-17.7-2.83-31.4,6.2-40.09,13.09-18.91,15.01-18.81,41.63-18.81,76.08v114.11h-46.22V1299.43h44.17v38.86h2.87c14.89-46.71,98.18-57.44,129.65-18a93.518,93.518,0,0,1,17.18,33.95c5.05,18.49,3.27,44.49,3.27,67.49v118.61ZM3654.46,1434H3486.77c-0.25,36.02,17.79,61.17,45.4,69.53,6.13,1.86,11.77,1.37,19.22,2.46,9.57,1.39,21.47-1.43,28.63-4.5a52.03,52.03,0,0,0,21.27-16.77c2.35-3.32,4.02-11.82,8.59-12.68l41.71,7.77c-7.38,48.22-75.38,79.19-134.97,60.94-42.15-12.91-64.14-44.01-73.62-89.98-2.2-10.7-4.13-26.92-2.04-39.68,2.6-15.9,2.42-28.96,7.36-41.71,17.11-44.19,60.63-87.62,128.43-70.35,10.26,2.61,20.45,6.43,28.63,11.45C3642.88,1333.48,3654.63,1372.56,3654.46,1434Zm254.4,0H3741.17c-0.54,49.67,42.57,89.24,94.07,67.08a50.552,50.552,0,0,0,20.86-17.18q2.865-5.925,5.72-11.86l44.18,7.77v0.41c-13.81,37.85-36.22,55.97-80.17,63.8-12.34,2.2-30.46,2.12-42.54-.41a132.1,132.1,0,0,1-25.76-7.77c-35.11-15.35-52.99-46.2-60.95-89.16-1.4-7.61-2.96-19.6-1.63-27.81q0.21-7.77.41-15.55c2.14-12.64,3.61-24.88,7.77-35.58,16.9-43.47,62.57-86.71,129.24-68.31a110.729,110.729,0,0,1,29.86,12.68C3897.94,1334.78,3909.02,1374.8,3908.86,1434Zm-824.15-134.57h46.63v240.91h-46.63V1299.43Zm-743.97,99.39h122.29v-1.22q-0.825-7.575-1.64-15.14c-4.98-20.15-16.37-35.43-33.95-42.94C2382.94,1320.5,2340.78,1358.7,2340.74,1398.82Zm1146.03,0h122.29c0.57-41.97-36.53-77.54-81.8-59.71C3504.85,1347.93,3488.5,1369.42,3486.77,1398.82Zm254.4,0h122.29c-0.03-30.01-14.93-51.05-36.4-59.71C3782.28,1321.05,3741.52,1359.14,3741.17,1398.82Zm-828.65-62.57c-6.42,2.46-13.48,1.72-19.22,4.09-18.29,7.53-29.21,25.07-35.17,44.99-15.5,51.74,7.68,121.55,65.85,112.07,14.74-2.41,27.57-7.65,35.17-17.18,27.77-34.79,24.58-109.93-10.22-134.57C2939.9,1339.26,2928.03,1336.13,2912.52,1336.25Z"/>
  <path id="Color_Fill_3" data-name="Color Fill 3" class="cls-4" d="M68.717,1206.18c40.234-.99,44.479,47.5,12.27,55.63-21.773,5.49-43.255-12.89-35.992-36C48.759,1213.83,57.431,1210.94,68.717,1206.18Zm4076.134,0c40.06-.98,44.36,46.84,12.27,55.63-21.78,5.96-42.48-12.93-36.4-34.77C4124.31,1214.18,4133.08,1211.14,4144.85,1206.18Zm-2066.29,12.68h46.63v321.48h-45.4v-37.22c-1.92-.05-2.8-0.07-3.68.82l-6.54,10.23c-7.93,11.18-18.67,21.2-32.32,26.58-19.52,7.7-49,4.22-65.85-2.86-39.21-16.49-53.43-49.72-61.35-98.16-1.58-9.73-2.54-22.94-.81-33.54l4.5-30.27c9.23-33.53,27.4-59.95,57.26-72.8,43.62-18.78,93.06.46,105.11,35.17h2.45V1218.86ZM431.912,1241.35H478.13v58.08H526.8v38.04H478.13v107.57c0,18.75-1.4,38.77,6.953,49.08,7.326,9.05,24.573,7.4,37.628,5.32v0.82q4.091,19.215,8.18,38.45c-0.272.13-.545,0.27-0.818,0.41-7.21,1.75-14.508,3.2-22.9,4.49-36.912,5.69-65.359-18.74-72.8-43.35-4.517-14.93-2.454-37.47-2.454-56.04V1337.47H397.556v-38.04h34.356v-58.08Zm1090.408,0h46.62v58.08h48.27v38.04h-48.27v108.39c0,16.78-1.93,36.97,5.32,46.63,7.66,10.2,24.05,9.31,38.86,6.95,0.13,0.14.27,0.27,0.41,0.41,0.37,6.18,8.84,37.21,7.36,38.86-14.34,8.56-45.65,5.3-59.72-.41-16.23-6.59-28.38-16.86-34.76-33.13-5.79-14.76-4.09-37.88-4.09-58.08V1337.47h-34.36v-38.04h34.36v-58.08Zm-299.39,55.22v45.4c-37.59-5.81-64.33,1.14-76.49,29.45-5.97,13.91-4.09,37.25-4.09,56.85v112.07h-46.21V1299.43h44.58v38.04h2.45c4.05-22.61,26.62-37.05,49.49-41.31C1202.24,1294.38,1213.64,1296.35,1222.93,1296.57ZM355.02,1540.34H308.8V1421.73c0-22.65,1.422-46.65-6.953-60.94-8.194-13.99-19.485-20.6-38.855-23.73-16.738-2.69-30.458,5.48-38.856,11.86-20.324,15.46-20.043,42.59-20.041,78.94v112.48H157.47V1299.43h44.582v38.86h2.863c12.466-45.45,97.472-57.53,128.018-19.63a94.942,94.942,0,0,1,19.224,38.04c4.621,18.62,2.863,44.07,2.863,66.67v116.97ZM777.93,1434H610.238c-0.076,42.26,21.629,65.48,58.488,71.58,10.917,1.8,24.115.1,32.72-3.28a52.047,52.047,0,0,0,25.768-21.26q2.248-4.5,4.5-9l43.354,7.77v1.23c-14.569,38.71-37.6,55.66-83.437,63.39-10.57,1.79-26.139,1.64-36.4-.41-11.025-2.2-21.1-4.95-30.267-8.99-49.162-21.68-78.639-100.98-51.943-168.93,16.8-42.76,64.73-85.93,130.472-66.26a115.109,115.109,0,0,1,28.631,12.68C767.578,1335.13,778.116,1375.02,777.93,1434Zm211.455-95.71v-38.86h45.395v196.74c0.01,36.47,2.44,74.7-11.45,96.94-21.57,34.54-83,54.67-138.65,37.22-26.985-8.47-45.755-25.02-57.26-49.09q20.039-8.58,40.082-17.17c13.676,33.66,72.75,45.26,105.114,20.04,19.608-15.28,16.19-52.47,15.951-87.53h-2.454c-19.859,33.66-59.264,53.88-108.386,32.72-34.67-14.94-50.193-44.46-57.67-87.12-1.382-7.89-3.133-19.77-1.636-29.04,1.962-12.15,1.359-23.91,4.091-34.77,8.209-32.64,24.553-56.49,50.307-71.57,41.889-24.53,100.322-5.86,113.294,31.49h3.272Zm456.445,202.05h-45.4v-32.72h-1.63c-8.42,26.19-51.87,45.46-90.8,36.4-31.02-7.21-65.84-34.45-58.9-78.12,7.75-48.71,36.66-55.8,83.03-65.03,18.01-3.59,59.25-1.89,65.85-15.13,3.02-6.06.84-17.86-.82-23.32-6.32-20.82-27-33.27-56.85-26.99-15.46,3.25-27.01,11.16-34.76,22.08q-3.075,5.325-6.14,10.64l-42.94-10.23v-0.41c8.24-31.62,35.63-50.55,67.89-58.48,40.2-9.9,86.22,2.61,103.89,24.95,18.57,23.48,17.58,51.48,17.58,93.66v122.7ZM1868.34,1434h-167.7c0.42,42.2,21.34,65.43,58.49,71.58a68.752,68.752,0,0,0,33.95-3.68c9.32-3.77,18.22-10.77,23.31-18.82l5.73-11.04,43.35,7.77v1.23c-11.07,32.89-32.94,52.51-67.89,61.35q-10.23,1.23-20.45,2.45c-20.07,3.24-42.2-1.68-56.04-7.36-37.21-15.28-56.17-45.5-64.62-89.98-1.79-9.46-3.44-23.46-1.63-34.36,2.93-17.7,2.68-31.82,8.18-45.81,16.91-43.06,62.83-86.5,129.24-67.9,10.57,2.97,20.61,6.99,29.04,12.27C1857.62,1334.46,1868.52,1373.97,1868.34,1434Zm2562.82,106.34h-46.22V1422.55c0-24.51.98-48.73-8.18-63.81-7.79-12.81-19.66-18.78-37.63-21.68-16.71-2.69-30.55,5.4-38.85,11.86-8.2,6.38-14.2,15.49-17.59,26.59-4.72,15.45-2.87,38.24-2.86,57.67v107.16h-46.22V1299.43h44.58v38.86h2.45c8.38-17.5,20.69-30.4,39.27-37.63,36.91-14.35,78.93,2.66,94.48,24.54,19.57,27.54,16.77,69.04,16.77,116.16v98.98Zm221.68-202.05v-38.86h45.4v198.38c0,37.72,2.2,75.73-13.09,97.75-20.64,29.71-74.06,50.67-127.61,37.22-31.01-7.79-55.43-24.06-66.67-51.54q20.04-8.58,40.08-17.17c11.8,33.19,71.57,44.56,103.48,21.26,21.06-15.37,17.84-52.07,17.59-88.75h-2.86c-13.02,37.7-68.28,50.23-110.84,31.49-26.93-11.85-44.47-37.79-52.36-68.71-2.51-9.84-2.31-20.58-4.09-31.5-2.65-16.26,1.1-35.35,4.09-47.85,10.63-44.4,33.84-73.83,80.17-82.62,12.22-2.32,29.39-1.64,40.08,1.64,15.31,4.69,27.21,14.85,35.58,26.58q4.1,6.345,8.18,12.68h2.87ZM49.9,1299.43H96.12v240.91H49.9V1299.43Zm4076.138,0h46.22v240.91h-46.22V1299.43ZM732.531,1398.82c0.632-43.22-38.421-78.41-83.846-58.89-21.665,9.3-35.976,30.31-38.447,58.89H732.531Zm1090.409,0c0.64-43.28-38.41-78.42-83.85-58.89-23.37,10.04-33.28,30.1-38.45,58.89h122.3Zm-898.995-62.57q-9.2,1.83-18.406,3.68c-19.943,8.03-31.674,27.06-37.219,49.49C855.449,1441.49,878.6,1506.9,935.4,1497.4c15.73-2.63,28.4-8.53,36.4-18.82,27.538-35.4,21.381-109.89-12.27-133.34C950.721,1339.11,938.922,1336.14,923.945,1336.25Zm1090.4,0-17.18,3.27c-21.82,8.49-32.91,28.34-38.85,52.76-12.45,51.11,11.85,121.03,65.44,112.48,12.12-1.93,21.23-5.37,29.04-11.45,21.57-16.82,33.81-62.88,24.13-102.26C2069.24,1359.76,2053.7,1335.96,2014.35,1336.25Zm2572.64,0c-5.91,2.26-12.65,1.58-18,3.68-19.07,7.49-30.36,25.23-36.4,45.81-15.34,52.23,8.25,121.03,65.85,111.66,15.38-2.51,28.12-8.04,35.99-18,26.88-34.02,23.46-108.69-9.81-132.93C4615.25,1339.65,4603.34,1336.12,4586.99,1336.25Zm-3187.78,86.71c-6.36,6.29-19.82,6.49-30.27,8.59-30.3,6.07-83.16,6.07-74.03,48.26q2.46,6.135,4.91,12.27c9.09,13.24,36.78,20.11,58.9,13.5,25.51-7.64,40.89-25.84,40.9-59.31Q1399.41,1434.615,1399.21,1422.96Z"/>
</svg>
